HIERARCHY
ROOT Hips
{
  OFFSET 0.000000 0.000000 0.000000
  CHANNELS 6 Xposition Yposition Zposition Zrotation Yrotation Xrotation
  JOINT Spine
  {
    OFFSET -0.000883 2.120903 -0.028059
    CHANNELS 3 Zrotation Yrotation Xrotation
    JOINT Spine1
    {
      OFFSET -0.002865 2.096658 0.129739
      CHANNELS 3 Zrotation Yrotation Xrotation
      JOINT Spine2
      {
        OFFSET -0.000072 2.101496 0.140380
        CHANNELS 3 Zrotation Yrotation Xrotation
        JOINT Neck
        {
          OFFSET 0.073278 1.835262 0.072900
          CHANNELS 3 Zrotation Yrotation Xrotation
          JOINT Head
          {
            OFFSET -0.033980 1.851628 -0.175733
            CHANNELS 3 Zrotation Yrotation Xrotation
            End Site
            {
              OFFSET 0 0 0
            }
          }
        }
        JOINT LeftShoulder
        {
          OFFSET 3.021134 1.180177 0.406022
          CHANNELS 3 Zrotation Yrotation Xrotation
          JOINT LeftArm
          {
            OFFSET 4.585380 -0.000000 -0.000000
            CHANNELS 3 Zrotation Yrotation Xrotation
            JOINT LeftForeArm
            {
              OFFSET 2.689350 -0.000000 -0.000000
              CHANNELS 3 Zrotation Yrotation Xrotation
              JOINT LeftHand
              {
                OFFSET 0.585058 -0.000000 -0.000000
                CHANNELS 3 Zrotation Yrotation Xrotation
                JOINT LeftHandIndex1
                {
                  OFFSET 0.471689 -0.000000 -0.000000
                  CHANNELS 3 Zrotation Yrotation Xrotation
                  End Site
                  {
                    OFFSET 0 0 0
                  }
                }
              }
            }
          }
        }
        JOINT RightShoulder
        {
          OFFSET -2.950738 1.188427 0.314298
          CHANNELS 3 Zrotation Yrotation Xrotation
          JOINT RightArm
          {
            OFFSET -4.474500 -0.000000 -0.000000
            CHANNELS 3 Zrotation Yrotation Xrotation
            JOINT RightForeArm
            {
              OFFSET -2.938960 -0.000000 -0.000000
              CHANNELS 3 Zrotation Yrotation Xrotation
              JOINT RightHand
              {
                OFFSET -0.405092 -0.000000 -0.000000
                CHANNELS 3 Zrotation Yrotation Xrotation
                JOINT RightHandIndex1
                {
                  OFFSET -0.326596 -0.000000 -0.000000
                  CHANNELS 3 Zrotation Yrotation Xrotation
                  End Site
                  {
                    OFFSET 0 0 0
                  }
                }
              }
            }
          }
        }
      }
    }
  }
  JOINT LeftUpLeg
  {
    OFFSET 2.251771 -6.186694 0.000000
    CHANNELS 3 Zrotation Yrotation Xrotation
    JOINT LeftLeg
    {
      OFFSET 2.266012 -6.225823 0.000000
      CHANNELS 3 Zrotation Yrotation Xrotation
      JOINT LeftFoot
      {
        OFFSET 0.237014 -0.651191 2.158476
        CHANNELS 3 Zrotation Yrotation Xrotation
        JOINT LeftToeBase
        {
          OFFSET 0.000000 -0.000000 1.129490
          CHANNELS 3 Zrotation Yrotation Xrotation
          End Site
          {
            OFFSET 0 0 0
          }
        }
      }
    }
  }
  JOINT RightUpLeg
  {
    OFFSET -2.280357 -6.265234 0.000000
    CHANNELS 3 Zrotation Yrotation Xrotation
    JOINT RightLeg
    {
      OFFSET -2.254897 -6.195283 0.000000
      CHANNELS 3 Zrotation Yrotation Xrotation
      JOINT RightFoot
      {
        OFFSET -0.283752 -0.779600 2.231370
        CHANNELS 3 Zrotation Yrotation Xrotation
        JOINT RightToeBase
        {
          OFFSET -0.000000 -0.000000 1.178990
          CHANNELS 3 Zrotation Yrotation Xrotation
          End Site
          {
            OFFSET 0 0 0
          }
        }
      }
    }
  }
}
MOTION
Frames: 6
Frame Time: 0.00833333
0.834130 14.853100 -2.510840 1.154940 7.690550 10.207900 -21.972900 -12.353200 -3.278800 0.000000 0.000000 28.743400 24.797200 0.000000 -34.270100 0.000000 0.000000 -3.146250 6.083400 0.791098 -42.689400 0.000000 0.000000 43.207900 -14.342200 0.000000 -4.647790 0.000000 0.000000 -6.226580 -2.854450 -1.166670 -6.027810 0.072858 -1.455280 -7.284590 1.637130 -0.584855 -4.096800 6.694510 -0.308970 -14.294800 -1.888620 -0.058204 16.374800 -0.000000 0.000000 0.000000 78.762900 -32.557400 -1.976080 0.000000 0.000000 138.620000 1.603740 0.000000 -22.920300 0.000000 0.000000 7.125020 -0.000000 0.000000 0.000000 -73.587200 10.942600 -2.456360 0.000000 0.000000 138.009000 7.261870 0.000000 -25.152700 0.000000 0.000000 7.125020
0.834266 14.855300 -2.513040 1.146140 7.642700 10.209800 -21.973400 -12.334600 -3.276220 0.000000 0.000000 28.706700 24.824700 0.000000 -34.237800 0.000000 0.000000 -3.148880 6.155970 0.686659 -42.752400 0.000000 0.000000 43.251100 -14.282300 0.000000 -4.613040 0.000000 0.000000 -5.931190 -2.839540 -1.158830 -5.986620 0.099543 -1.445780 -7.260170 1.657220 -0.580456 -4.094050 6.694700 -0.298351 -14.354800 -1.903420 -0.052756 16.385700 -0.000000 0.000000 0.000000 78.738000 -32.529600 -1.957760 0.000000 0.000000 138.574000 1.517710 0.000000 -23.045000 0.000000 0.000000 7.125020 -0.000000 0.000000 0.000000 -73.575900 10.993200 -2.365920 0.000000 0.000000 137.985000 6.996530 0.000000 -25.192400 0.000000 0.000000 7.125020
0.835192 14.855800 -2.515110 1.163640 7.624750 10.224700 -21.995600 -12.316800 -3.283690 0.000000 0.000000 28.679100 24.819100 0.000000 -34.231800 0.000000 0.000000 -3.094920 6.167430 0.621990 -42.811600 0.000000 0.000000 43.294100 -14.294000 0.000000 -4.564190 0.000000 0.000000 -5.944900 -2.825950 -1.158900 -5.964480 0.111406 -1.446600 -7.247260 1.662180 -0.581391 -4.092660 6.658500 -0.294429 -14.337700 -1.891350 -0.051143 16.364000 0.000000 0.000000 0.000000 78.731400 -32.550700 -1.977490 0.000000 0.000000 138.569000 1.622670 0.000000 -23.121600 0.000000 0.000000 7.125020 0.000000 0.000000 0.000000 -73.564000 11.025100 -2.302950 0.000000 0.000000 137.960000 6.938230 0.000000 -25.208300 0.000000 0.000000 7.125020
0.837145 14.855800 -2.516370 1.198510 7.631820 10.228000 -22.035600 -12.294800 -3.272100 0.000000 0.000000 28.652100 24.802500 0.000000 -34.202900 0.000000 0.000000 -3.113630 6.174710 0.461175 -42.843300 0.000000 0.000000 43.335300 -14.172000 0.000000 -4.547940 0.000000 0.000000 -5.916830 -2.805460 -1.164390 -5.931020 0.104371 -1.455800 -7.240700 1.643810 -0.587080 -4.104490 6.685880 -0.288043 -14.349900 -1.912330 -0.045920 16.373100 -0.000000 -0.000000 0.000000 78.708800 -32.576300 -1.997590 0.000000 0.000000 138.555000 1.580490 0.000000 -23.289800 0.000000 0.000000 7.125020 -0.000000 -0.000000 0.000000 -73.566100 11.058500 -2.273240 0.000000 0.000000 137.924000 6.978430 0.000000 -25.295600 0.000000 0.000000 7.125020
0.838168 14.856100 -2.518080 1.219750 7.619870 10.235800 -22.060400 -12.271000 -3.275080 0.000000 0.000000 28.632400 24.795300 0.000000 -34.180800 0.000000 0.000000 -3.116090 6.185340 0.362058 -42.888600 0.000000 0.000000 43.373800 -14.106300 0.000000 -4.515050 0.000000 0.000000 -5.899600 -2.790930 -1.167460 -5.902560 0.110686 -1.461040 -7.230850 1.642560 -0.590290 -4.109820 6.683620 -0.281676 -14.344900 -1.918000 -0.041645 16.365100 0.000000 -0.000000 0.000000 78.691100 -32.587800 -2.015290 0.000000 0.000000 138.538000 1.593280 0.000000 -23.421000 0.000000 0.000000 7.125020 0.000000 -0.000000 0.000000 -73.559200 11.098900 -2.220960 0.000000 0.000000 137.893000 6.996460 0.000000 -25.369200 0.000000 0.000000 7.125020
0.839067 14.856300 -2.519750 1.240990 7.609690 10.243600 -22.083800 -12.246700 -3.279150 0.000000 0.000000 28.615000 24.784100 0.000000 -34.160200 0.000000 0.000000 -3.116330 6.188040 0.276408 -42.929900 0.000000 0.000000 43.408800 -14.040300 0.000000 -4.484160 0.000000 0.000000 -5.918290 -2.777150 -1.172660 -5.877160 0.117586 -1.468970 -7.221540 1.642220 -0.594807 -4.113860 6.679950 -0.274913 -14.332900 -1.922460 -0.036985 16.355200 0.000000 0.000000 0.000000 78.672700 -32.598900 -2.033920 0.000000 0.000000 138.517000 1.628410 0.000000 -23.563800 0.000000 0.000000 7.125020 0.000000 0.000000 0.000000 -73.551200 11.141300 -2.165480 0.000000 0.000000 137.858000 7.070500 0.000000 -25.464000 0.000000 0.000000 7.125020
